<?xml version="1.0" encoding="utf-8"?>
<svg width="782" height="239" viewBox="0 0 782 239" fill="none" xmlns="http://www.w3.org/2000/svg" xmlns:bx="https://boxy-svg.com"><defs><bx:export><bx:file format="svg" href="#object-0"/><bx:file format="svg" path="Untitled 2.svg"/></bx:export></defs><style type="text/css">
	.st0{fill:#FFFFFF;}
	.st1{fill:url(#SVGID_1_);}
	.st2{fill:url(#SVGID_00000181060821753741050370000013197842403379334275_);}
	.st3{fill:url(#SVGID_00000116953105988843326020000011788144501117355199_);}
	.st4{fill:url(#SVGID_00000145019831696484138580000011960949035590359207_);}
	.st5{fill:url(#SVGID_00000018194675576709647110000008725551413999195525_);}
	.st6{fill:url(#SVGID_00000011006726294666079710000015829727535216926378_);}
	.st7{fill:url(#SVGID_00000181785743140842202170000005419895898509479582_);}
	.st8{fill:url(#SVGID_00000135663077348172388740000007239145133363613842_);}
	.st9{fill:url(#SVGID_00000116201161005839224780000007528934390543034003_);}
	.st10{fill:url(#SVGID_00000019647325186911210930000004807383354674930310_);}
	.st11{fill:url(#SVGID_00000143610318047375425780000013582002838616936323_);}
</style><g><g><path class="st0" d="M435.5,174h7.6v24.8c2.3-5,6.3-9.2,13.1-9.2c11.5,0,15.8,7.5,15.8,16.4v28.3h-7.6v-27.6 c0-7.7-3.3-10.7-9.2-10.7c-6.4,0-12.1,5.4-12.1,16.8v21.4h-7.6V174L435.5,174z M425.5,228c-3.4,0-5.6-2.1-5.6-6v-25.2h8.4v-6.2 h-8.4V177l-7.4,3.4v10.2H406v6.2h6.5v25.7c0,6.8,3.8,11.8,12.3,11.8h3.8v-6.2L425.5,228L425.5,228z M399.9,174h-7.6v60.3h7.6V174z M364.1,189.5c-11.4,0-16.7,7.9-17.7,14.3h7.6c1-4.7,5-7.9,10.3-7.9c6.2,0,9.7,2.6,9.7,6.2c0,3.6-1.9,5.2-7.6,6.2 c-6.6,1.2-22.1,1.6-22.1,13.9c0,6.2,4.8,12.9,15.3,12.9c9.7,0,13.3-5.6,14.4-9h0.1v1.7c0,2.5,0,4.2,0.2,6.3h8.1 c-0.3-2.1-0.7-5.6-0.7-8.9v-18.8C381.6,199.9,380.1,189.5,364.1,189.5L364.1,189.5z M360.9,229.1c-5.3,0-9.1-2.6-9.1-6.8 c0-4.4,3.8-6.2,10.1-7.3c9.5-1.7,11.3-4.2,12.2-7.1l0.1,6.1C374.2,224.8,367.6,229.1,360.9,229.1L360.9,229.1z M317.8,235.3 c9.7,0,17.1-4.7,19.5-14h-7.4c-1.5,5.4-6.4,7.7-12.3,7.7c-7.8,0-13.3-5.3-13.9-14.4H338v-1.4c-0.2-11.2-5-23.6-20.4-23.6 c-12.4,0-21.3,9.5-21.3,22.6C296.4,225.4,304.9,235.3,317.8,235.3L317.8,235.3z M303.8,208.4c1-7.5,6-12.6,13.8-12.6 c7.8,0,12,5,12.7,12.6H303.8z M279.8,174v26.7h-29.1V174h-8v60.3h8v-26.9h29.1v26.9h8V174H279.8z M742.6,108.9h10.7v7.5 c2.5-5.1,6.3-8.7,13.1-8.7c11.3,0,15.7,7.4,15.7,18.2v26.7h-10.8v-24.1c0-6.3-1.7-11.3-7.9-11.3c-5.8,0-9.8,5.1-9.8,15.8v19.6 h-10.9V108.9z M721,152.6h10.9v-43.7H721V152.6z M721.2,102.4h11.2V92.3h-11.2V102.4z M692.5,107.6c-11.5,0-17.5,7.5-18.8,14.7 H684c1.1-4,4.3-6.6,8.6-6.6c5,0,8,2,8,5.5c0,3.7-2.7,4.5-8.4,5.4c-6.1,0.9-20.5,2.1-20.5,14.1c0,7.3,5.7,13.1,15.3,13.1 c8.3,0,11.9-4.4,13.7-7.9h0.1v2.2c0,1.4,0.1,3.1,0.3,4.5h10.9c-0.6-2.8-0.8-7.3-0.8-10.7v-15.8 C711.3,115.4,706.2,107.5,692.5,107.6L692.5,107.6z M690.1,145.7c-4.9,0-7.4-2.5-7.4-5.6c0-3.3,2.6-5.1,8.5-6.2 c6.4-1.3,8.7-3.2,9.7-5.3v3.7C700.8,142.4,695.7,145.8,690.1,145.7L690.1,145.7z M663.6,144.1c-4.6,0-5.7-2.9-5.7-7.9v-19h8.8 v-8.3h-8.8V94.4L647.2,99v9.9h-7v8.3h7v20.5c0,8.8,3.1,15.2,13.8,15h5.2v-8.6H663.6z M595.4,152.6h10.9V133 c0-10.7,4-15.8,9.8-15.8c6.2,0,7.9,5,7.9,11.3v24.1h10.8v-26.7c0-10.7-4.4-18.2-15.7-18.2c-6.8,0-10.7,3.6-13.1,8.7v-7.5h-10.7 V152.6z M545.8,135.6c0,10.7,4.5,18.2,15.7,18.2c6.8,0,10.7-3.6,13.1-8.7v7.5h10.7v-43.7h-10.9v19.6c0,10.7-3.9,15.8-9.8,15.8 c-5.9,0-7.9-5-7.9-11.3v-24.1h-10.8V135.6L545.8,135.6z M492.9,130.7c0,14.1,10.1,23.1,22.9,23.1c12.8,0,22.8-9,22.8-23.1 c0-14.1-10.1-23-22.8-23C503,107.7,492.9,116.7,492.9,130.7z M515.8,145.2c-7.4,0-12.3-6.6-12.3-14.5c0-7.9,4.8-14.4,12.3-14.4 c7.4,0,12.3,6.6,12.3,14.4C528,138.6,523.2,145.2,515.8,145.2z M422.7,152.6h10.9V133c0-8.5,1.7-15.8,8.4-15.8c6,0,7.1,5,7.1,11.3 v24.1h10.5v-20.9c0-9.1,3.3-14.5,8.4-14.5c5.4,0,7.1,5,7.1,11.3v24.1h10.7v-26.7c0-10.7-5.4-18.2-16.4-18.2c-6.3,0-9.7,3-12.2,8.2 c-2.2-5.6-6.2-8.2-12.2-8.2c-6.3,0-10.4,4.2-11.8,8.4v-7.2h-10.7L422.7,152.6L422.7,152.6z M403.5,108.9h-10.7v43.7h10.9v-19.7 c0-10.7,3.9-12.7,7.8-13.7c1.5-0.6,4.6-0.6,5.2-0.6v-10.2c-6.1,0.1-10.8,2.4-13.2,8.2V108.9z M363.5,153.9 c10.6,0,18.2-5.5,20.8-14.2h-10.8c-1.6,3.8-5.5,5.4-10.1,5.4c-6.3,0-11.1-4.4-11.9-11.4H385v-2.1c-0.1-12.9-6.8-24-21.4-24 c-13,0-22.5,9.6-22.5,23S350.3,153.9,363.5,153.9L363.5,153.9z M351.6,126.4c1-6.3,5.3-10.6,11.8-10.6c7,0,10.4,4.9,11.1,10.6 H351.6L351.6,126.4z M333.3,144.1c-4.6,0-5.7-2.9-5.7-7.9v-19h8.8v-8.3h-8.8V94.3L317,99v9.9h-7v8.3h7v20.5 c0,8.8,3.1,15.2,13.8,15h5.2v-8.6H333.3z M265.2,152.5h10.9v-19.6c0-10.7,4-15.8,9.8-15.8c6.2,0,7.9,5,7.9,11.3v24.1h10.8v-26.7 c0-10.7-4.4-18.2-15.7-18.2c-6.8,0-10.7,3.6-13.1,8.7v-7.5h-10.7V152.5z M254,92.2h-11.3v60.3H254V92.2L254,92.2z" style="fill: rgb(26, 5, 89);" id="object-0"/></g><linearGradient id="SVGID_1_" gradientUnits="userSpaceOnUse" x1="43.6991" y1="29.082" x2="43.6991" y2="130.591" gradientTransform="matrix(1 0 0 -1 0 240)"><stop offset="0.13" style="stop-color:#FA0000"/><stop offset="0.49" style="stop-color:#FE4D46"/><stop offset="0.56" style="stop-color:#FF5D55"/><stop offset="0.64" style="stop-color:#FF645C"/><stop offset="0.75" style="stop-color:#FF7871"/><stop offset="0.85" style="stop-color:#FF8E88"/></linearGradient><path class="st1" d="M82.6,135.8l-37.1,55.9v-63c0-11.2-9.1-20.3-20.3-20.3s-20.3,9.1-20.3,20.3v72.9c0,20.7,16.8,37.5,37.5,37.5 c13.2,0,24.9-6.9,31.6-17.2l8.6-12.9L82.6,135.8L82.6,135.8z"/><linearGradient id="SVGID_00000155859110509468066820000014880486876211554730_" gradientUnits="userSpaceOnUse" x1="42.858" y1="131.8723" x2="44.5509" y2="12.2051" gradientTransform="matrix(1 0 0 -1 0 240)"><stop offset="0.14" style="stop-color:#FF8E88"/><stop offset="0.21" style="stop-color:#FF857E"/><stop offset="0.43" style="stop-color:#FF6F67"/><stop offset="0.64" style="stop-color:#FF6159"/><stop offset="0.82" style="stop-color:#FF5D55"/></linearGradient><path style="fill:url(#SVGID_00000155859110509468066820000014880486876211554730_);" d="M82.6,135.8l-45.9,69.1 c-1.1,1.6-3,2.7-5.2,2.7c-3.5,0-6.3-2.8-6.3-6.3v-93c-11.2,0-20.3,9.1-20.3,20.3v72.9c0,14.6,11.9,26.5,26.5,26.5 c9,0,17-4.5,21.7-11.4l29.5-44.3V135.8L82.6,135.8z"/><linearGradient id="SVGID_00000020383733854951624500000008651882050137439672_" gradientUnits="userSpaceOnUse" x1="41.6298" y1="23.4259" x2="72.5284" y2="76.9779" gradientTransform="matrix(1 0 0 -1 0 240)"><stop offset="0.12" style="stop-color:#FF5D55"/><stop offset="0.69" style="stop-color:#FF9E9A"/><stop offset="1" style="stop-color:#FFBEBB"/></linearGradient><path style="fill:url(#SVGID_00000020383733854951624500000008651882050137439672_);" d="M82.6,135.8l-45.9,69.1 c-1.1,1.6-3,2.7-5.2,2.7l-0.1,20.3c9,0,17-4.5,21.7-11.4l29.5-44.3V135.8z"/><linearGradient id="SVGID_00000177481741732294021130000015985565621330010771_" gradientUnits="userSpaceOnUse" x1="25.1268" y1="145.1737" x2="25.1268" y2="195.4376" gradientTransform="matrix(1 0 0 -1 0 240)"><stop offset="0" style="stop-color:#FA0000"/><stop offset="0.16" style="stop-color:#FB2827"/><stop offset="0.33" style="stop-color:#FC4D49"/><stop offset="0.5" style="stop-color:#FD6965"/><stop offset="0.67" style="stop-color:#FE7D78"/><stop offset="0.83" style="stop-color:#FE8984"/><stop offset="1" style="stop-color:#FF8E88"/></linearGradient><path style="fill:url(#SVGID_00000177481741732294021130000015985565621330010771_);" d="M29.2,94.5c13.7-2.2,23-15.1,20.8-28.8 c-2.2-13.7-15.1-23-28.8-20.8C7.4,47.1-1.9,60,0.3,73.7C2.5,87.4,15.5,96.7,29.2,94.5z"/><linearGradient id="SVGID_00000064341947750362980240000002376301106423776697_" gradientUnits="userSpaceOnUse" x1="94.0577" y1="139.2087" x2="155.7264" y2="224.3392" gradientTransform="matrix(1 0 0 -1 0 240)"><stop offset="0.43" style="stop-color:#FF0044"/><stop offset="0.45" style="stop-color:#FE0546"/><stop offset="0.61" style="stop-color:#FE3E64"/><stop offset="0.74" style="stop-color:#FD6879"/><stop offset="0.85" style="stop-color:#FD8287"/><stop offset="0.91" style="stop-color:#FD8C8C"/></linearGradient><path style="fill:url(#SVGID_00000064341947750362980240000002376301106423776697_);" d="M82.6,46.9C83.3,20.9,104.7,0,131,0 c26.3,0,48.5,21.7,48.5,48.5c0,10.6-3.4,20.4-9.2,28.4L148.9,109c-2.8-0.4-5.7-0.6-8.6-0.6c-31.9,0-57.7,25.8-57.7,57.7V46.9z M138.9,48.6c0-4.4-3.6-7.9-7.9-7.9c-4.4,0-7.9,3.6-7.9,7.9v26.2l14.7-22.2C138.5,51.5,138.9,50.1,138.9,48.6z"/><linearGradient id="SVGID_00000103982116903138230120000003068339481170471552_" gradientUnits="userSpaceOnUse" x1="136.1561" y1="219.9768" x2="92.7789" y2="144.8448" gradientTransform="matrix(1 0 0 -1 0 240)"><stop offset="0.18" style="stop-color:#FB4D4D"/><stop offset="0.25" style="stop-color:#FB5E5E"/><stop offset="0.41" style="stop-color:#FD817E"/><stop offset="0.55" style="stop-color:#FE9996"/><stop offset="0.68" style="stop-color:#FEA8A5"/><stop offset="0.79" style="stop-color:#FFAEAA"/></linearGradient><path style="fill:url(#SVGID_00000103982116903138230120000003068339481170471552_);" d="M123.3,110.9l-0.3,0.1V74.8l14.7-22.2 c0.7-1.2,1.1-2.6,1.1-4c0-10-8.1-18.1-18.1-18.1c-10,0-18.1,8.1-18.1,18.1v73.6c-12.4,10.6-20.3,26.3-20.3,43.9V47.7 c0-20.8,16.8-37.6,37.6-37.6c20.8,0,37.6,16.8,37.6,37.6c0,7.7-2.3,14.9-6.3,20.9l0.1-0.2L123.3,110.9L123.3,110.9z"/><linearGradient id="SVGID_00000054232567123566791900000007698958352155571096_" gradientUnits="userSpaceOnUse" x1="120.403" y1="188.9472" x2="107.229" y2="95.0053" gradientTransform="matrix(1 0 0 -1 0 240)"><stop offset="0" style="stop-color:#FA0000"/><stop offset="0.05" style="stop-color:#FA100E"/><stop offset="0.28" style="stop-color:#FF5D55"/><stop offset="0.67" style="stop-color:#FF746D"/><stop offset="0.92" style="stop-color:#FF7D77"/></linearGradient><path style="fill:url(#SVGID_00000054232567123566791900000007698958352155571096_);" d="M123.1,111c-7.5,2.4-14.4,6.2-20.3,11.2 V48.6c0-10,8.1-18.1,18.1-18.1c10,0,18.1,8.1,18.1,18.1c0-4.4-3.6-7.9-7.9-7.9c-4.4,0-7.9,3.6-7.9,7.9L123.1,111L123.1,111z"/><linearGradient id="SVGID_00000057855577960271698090000000602374370110067866_" gradientUnits="userSpaceOnUse" x1="145.7349" y1="211.6191" x2="134.7509" y2="1.6643" gradientTransform="matrix(1 0 0 -1 0 240)"><stop offset="0.03" style="stop-color:#FB5151"/><stop offset="0.09" style="stop-color:#FC6765"/><stop offset="0.16" style="stop-color:#FD7874"/><stop offset="0.24" style="stop-color:#FE857F"/><stop offset="0.35" style="stop-color:#FE8C86"/><stop offset="0.64" style="stop-color:#FF8E88"/><stop offset="0.69" style="stop-color:#FF7B7F"/><stop offset="0.8" style="stop-color:#FF4B68"/><stop offset="0.95" style="stop-color:#FF0044"/></linearGradient><path style="fill:url(#SVGID_00000057855577960271698090000000602374370110067866_);" d="M120.1,30.5c-9.7,0.4-17.4,8.3-17.4,18.1 v73.6c10.1-8.6,23.2-13.8,37.5-13.8c31.9,0,57.7,25.8,57.7,57.7v52.6c0,11.2-9.1,20.3-20.3,20.3c-11.2,0-20.3-9.1-20.3-20.3v-52.6 c0-9.5-7.7-17.2-17.2-17.2c-9.5,0-17.2,7.7-17.2,17.2v52.6c0,11.2-9.1,20.3-20.3,20.3c-11.2,0-20.3-9.1-20.3-20.3V47.7 c0-20.8,16.8-37.6,37.6-37.6V30.5z"/><linearGradient id="SVGID_00000031919697630106056130000005315119409390697614_" gradientUnits="userSpaceOnUse" x1="102.772" y1="61.248" x2="197.941" y2="61.248" gradientTransform="matrix(1 0 0 -1 0 240)"><stop offset="0.21" style="stop-color:#FF0044"/><stop offset="0.29" style="stop-color:#FB0659"/><stop offset="0.45" style="stop-color:#F11690"/><stop offset="0.68" style="stop-color:#E22FE8"/><stop offset="0.74" style="stop-color:#DF36FF"/></linearGradient><path style="fill:url(#SVGID_00000031919697630106056130000005315119409390697614_);" d="M177.7,239v-72.9 c0-15.1-12.2-27.3-27.3-27.3c-15.1,0-27.3,12.2-27.3,27.3v52.6c0,11.2-9.1,20.3-20.3,20.3v-72.9c0-26.3,21.3-47.6,47.6-47.6 c26.3,0,47.6,21.3,47.6,47.6v52.6C197.9,229.9,188.9,239,177.7,239L177.7,239z"/><linearGradient id="SVGID_00000153707501402854963700000002518791400886426253_" gradientUnits="userSpaceOnUse" x1="150.3895" y1="101.247" x2="150.3895" y2="1" gradientTransform="matrix(1 0 0 -1 0 240)"><stop offset="0.45" style="stop-color:#8C00CD"/><stop offset="0.73" style="stop-color:#CB29F3"/><stop offset="0.81" style="stop-color:#DF36FF"/></linearGradient><path style="fill:url(#SVGID_00000153707501402854963700000002518791400886426253_);" d="M177.7,239v-72.9 c0-15.1-12.2-27.3-27.3-27.3c-15.1,0-27.3,12.2-27.3,27.3c0-9.5,7.7-17.2,17.2-17.2c9.5,0,17.2,7.7,17.2,17.2v52.6 C157.4,229.9,166.5,239,177.7,239L177.7,239z"/><linearGradient id="SVGID_00000133528107593010312370000009982611379100846726_" gradientUnits="userSpaceOnUse" x1="116.8779" y1="77.0372" x2="194.7989" y2="122.0392" gradientTransform="matrix(1 0 0 -1 0 240)"><stop offset="0.1" style="stop-color:#FF8E88"/><stop offset="0.52" style="stop-color:#FF9994"/><stop offset="0.63" style="stop-color:#FF9E99"/><stop offset="0.71" style="stop-color:#FE9A96"/><stop offset="0.77" style="stop-color:#FE918C"/><stop offset="0.82" style="stop-color:#FE817D"/><stop offset="0.87" style="stop-color:#FD6A66"/><stop offset="0.91" style="stop-color:#FC4C4A"/><stop offset="0.96" style="stop-color:#FB2827"/><stop offset="1" style="stop-color:#FA0000"/></linearGradient><path style="fill:url(#SVGID_00000133528107593010312370000009982611379100846726_);" d="M198,166.1c0-26.3-21.3-47.6-47.6-47.6 s-47.6,21.3-47.6,47.6v-43.9c10.1-8.6,23.1-13.8,37.5-13.8C172.2,108.4,198,134.2,198,166.1L198,166.1z"/></g></svg>